<svg xmlns="http://www.w3.org/2000/svg" width="24" height="24" viewBox="0 0 24 24">
  <path fill="none" stroke="#000" stroke-width="2" d="M7,10 C8.65685425,10 10,8.65685425 10,7 C10,5.34314575 8.65685425,4 7,4 C5.34314575,4 4,5.34314575 4,7 C4,8.65685425 5.34314575,10 7,10 Z M17,20 C18.6568542,20 20,18.6568542 20,17 C20,15.3431458 18.6568542,14 17,14 C15.3431458,14 14,15.3431458 14,17 C14,18.6568542 15.3431458,20 17,20 Z M7,8 C7.55228475,8 8,7.55228475 8,7 C8,6.44771525 7.55228475,6 7,6 C6.44771525,6 6,6.44771525 6,7 C6,7.55228475 6.44771525,8 7,8 Z M17,18 C17.5522847,18 18,17.5522847 18,17 C18,16.4477153 17.5522847,16 17,16 C16.4477153,16 16,16.4477153 16,17 C16,17.5522847 16.4477153,18 17,18 Z M7,20 C5.34314575,20 4,18.6568542 4,17 C4,15.3431458 5.34314575,14 7,14 C8.65685425,14 10,15.3431458 10,17 C10,18.6568542 8.65685425,20 7,20 Z M17,10 C15.3431458,10 14,8.65685425 14,7 C14,5.34314575 15.3431458,4 17,4 C18.6568542,4 20,5.34314575 20,7 C20,8.65685425 18.6568542,10 17,10 Z"/>
</svg>
