<svg xmlns="http://www.w3.org/2000/svg" width="24" height="24" viewBox="0 0 24 24">
  <path fill="none" stroke="#000" stroke-width="2" d="M8,22 C10,22 12.9996892,22 15,22 C18,22 19,20 19,17 L19,5 C19,3.00000008 18,2.99999992 17.5,3 C17,3.00000008 15.9998779,3.00000008 15.9998779,4.99999984 L15.9998779,12 C15.9998777,11 16.0001888,9.9999999 14.5003109,9.9999999 C13.000433,9.9999999 13,12 13,12 C13,11 13,10 11.5,9.9999999 C10,9.9999999 10,11 10,11.9999999 L10,3 C10,2 10.029402,1 8.5,1 C7,1 7,2 7,3 L7,17 L7,13 C7,12 6.44999986,11 5.00000005,11 C5,11 4,11 4,11 C4,11 4.00000001,13.0384045 4,17 C3.99999999,20.9615955 6,22.023861 8,22 Z"/>
</svg>
